<svg width="248" height="184" viewBox="0 0 248 184" fill="none" xmlns="http://www.w3.org/2000/svg">
<path d="M40.2074 0.0520805C52.6609 0.0520805 65.1144 0.0865691 77.5815 0.000347613C79.2456 -0.0168967 79.6821 0.603898 79.7094 2.65597C79.8049 10.9505 80.064 19.2277 80.2141 27.5222C80.2277 28.4534 80.7597 29.8502 79.2729 29.9537C78.0453 30.0399 77.0359 30.1606 76.7085 27.9878C76.122 24.1251 75.099 20.4176 73.8032 16.8135C72.1391 12.1748 69.3838 9.48471 65.4554 8.4673C59.7538 6.98429 53.984 7.43264 48.2279 7.32917C47.3822 7.31193 47.0139 7.77753 47.0957 8.84667C47.123 9.26054 47.0957 9.69164 47.0957 10.1055C47.0957 39.1621 47.0957 68.236 47.0957 97.2927C47.0957 100.31 47.2185 103.311 47.805 106.26C48.3643 109.036 49.701 110.778 51.8425 111.588C54.2023 112.485 56.6029 113.037 59.0582 113.175C60.0266 113.226 60.6541 113.416 60.6541 114.985C60.6677 116.71 59.8766 116.572 58.9763 116.572C46.591 116.555 34.1921 116.572 21.8069 116.555C21.0157 116.555 20.0746 116.951 20.0336 115.123C19.9927 113.416 20.6747 113.244 21.725 113.175C24.1802 113.002 26.5809 112.433 28.9134 111.381C30.7412 110.554 31.8869 108.967 32.3916 106.622C33.0464 103.518 33.2373 100.362 33.2373 97.172C33.2373 68.0291 33.2237 38.869 33.2646 9.72613C33.2646 7.91548 32.9645 7.24295 31.4232 7.31193C26.731 7.48437 22.0251 7.24295 17.3329 7.94997C11.2494 8.86392 7.14368 12.6059 5.28861 20.1244C4.63388 22.7628 3.87004 25.3667 3.59723 28.1086C3.36535 30.4193 2.13773 29.9882 0.991959 29.9709C-0.385698 29.9537 0.064428 28.6259 0.0917083 27.7809C0.269031 19.3312 0.528194 10.8643 0.678236 2.41455C0.705516 0.517677 1.15564 0.000347613 2.64242 0.0175919C15.1641 0.0865691 27.6858 0.0520805 40.2074 0.0520805Z" fill="black"/>
<path d="M207.887 0.052021C220.354 0.052021 232.807 0.0865096 245.274 0.0175323C246.72 0.0175323 247.198 0.414151 247.225 2.34551C247.361 10.64 247.661 18.9173 247.839 27.2118C247.866 28.2292 248.575 29.8329 246.788 29.9881C245.315 30.1088 244.551 29.7295 244.224 27.6257C243.638 23.8492 242.628 20.2106 241.332 16.6928C239.777 12.4507 237.308 9.76056 233.694 8.65693C227.747 6.86352 221.704 7.41534 215.689 7.32912C214.911 7.31187 214.625 7.79471 214.652 8.72591C214.666 9.31221 214.652 9.89852 214.652 10.4848C214.652 38.9724 214.652 67.46 214.652 95.9648C214.652 99.155 214.734 102.311 215.252 105.466C215.784 108.743 217.189 110.829 219.794 111.709C222.045 112.468 224.309 113.019 226.628 113.175C227.583 113.244 228.238 113.416 228.251 114.985C228.251 116.71 227.447 116.572 226.56 116.572C214.093 116.572 201.639 116.572 189.172 116.572C188.313 116.572 187.645 116.606 187.604 115.072C187.563 113.537 188.136 113.244 189.145 113.175C191.396 113.019 193.592 112.468 195.774 111.692C198.461 110.726 199.825 108.501 200.289 105.122C200.753 101.724 200.916 98.2928 200.916 94.8612C200.93 66.615 200.889 38.3861 200.957 10.1399C200.957 7.74298 200.371 7.20841 198.611 7.27739C193.319 7.46707 188.013 7.03596 182.761 8.43275C178.478 9.57088 175.45 12.4507 173.704 17.5722C172.531 20.9694 171.645 24.4872 171.181 28.1085C170.908 30.2985 169.803 29.9364 168.712 29.9536C167.28 29.9881 167.594 28.6603 167.621 27.6429C167.853 19.107 168.153 10.571 168.303 2.01787C168.344 -0.0342006 169.149 0.0175323 170.294 0.0347767C182.843 0.0692653 195.365 0.052021 207.887 0.052021Z" fill="black"/>
<path d="M128.051 1.77647C138.854 1.77647 149.657 1.81096 160.446 1.74198C162.178 1.72473 162.533 2.22482 162.137 4.41484C160.828 11.7609 159.668 19.1415 158.536 26.5393C158.318 27.9878 158.004 28.4534 156.763 28.3154C155.385 28.1602 155.604 27.1946 155.631 26.0909C155.686 23.8319 155.74 21.5729 155.672 19.3139C155.535 14.4855 153.489 11.0884 149.875 9.60538C146.888 8.38103 143.778 8.03615 140.668 7.81197C134.721 7.38086 128.76 7.17393 122.799 7.84646C120.344 8.12237 119.021 9.79507 118.366 12.7094C115.543 25.4874 112.664 38.2827 109.773 51.0607C109.514 52.2333 109.2 53.0955 110.714 53.0093C116.402 52.6644 122.09 52.4057 127.737 51.4056C130.833 50.8538 133.193 49.1466 135.075 46.0598C136.617 43.5249 138.008 40.8693 139.126 38.024C139.686 36.61 140.422 36.9376 141.254 37.2652C142.332 37.6963 141.732 38.6275 141.568 39.3173C138.403 51.8367 135.212 64.3215 132.02 76.8237C131.802 77.6514 131.761 78.6861 130.629 78.2894C129.578 77.9273 129.251 77.272 129.483 75.9615C129.987 73.0127 130.465 70.0639 130.342 67.0117C130.165 62.8558 128.651 60.4933 125.418 59.6828C119.976 58.3033 114.451 58.9586 108.968 58.8206C107.672 58.7861 107.781 60.2002 107.577 61.1314C105.422 70.8744 103.307 80.6519 101.193 90.4122C100.334 94.3611 99.4608 98.3101 98.6287 102.276C97.2238 108.915 98.9152 112.226 104.208 113.226C105.326 113.433 106.445 113.589 107.563 113.657C108.409 113.709 108.9 113.951 108.872 115.244C108.845 116.468 108.341 116.555 107.604 116.555C96.801 116.537 85.9979 116.555 75.2086 116.555C74.4993 116.555 73.9128 116.555 73.8718 115.296C73.8446 114.071 74.2674 113.64 75.1404 113.623C80.8283 113.485 83.4882 108.915 84.8795 102.725C87.9349 89.1189 90.9357 75.4959 93.9092 61.8729C97.101 47.2842 100.252 32.6783 103.362 18.0551C103.717 16.3651 103.935 14.6062 103.989 12.8646C104.153 8.10512 102.912 6.13927 99.2016 5.15635C97.974 4.82871 96.6918 4.82871 95.4779 4.48382C94.6867 4.25965 93.2409 5.36328 93.2682 3.13877C93.2954 0.741809 94.8231 1.81096 95.6415 1.81096C101.93 1.70749 108.231 1.75922 114.52 1.75922C119.034 1.77647 123.549 1.77647 128.051 1.77647Z" fill="black"/>
<path d="M169.843 32.3506C169.843 59.8725 169.816 86.7564 169.898 113.64C169.912 116.123 169.352 116.658 167.484 116.641C156.558 116.537 145.646 116.589 134.406 116.589C146.219 88.5153 157.922 60.7003 169.843 32.3506ZM138.73 115.71C138.73 115.761 138.73 115.813 138.73 115.865C147.896 115.865 157.076 115.865 166.242 115.865C166.242 115.813 166.242 115.761 166.242 115.71C157.076 115.71 147.91 115.71 138.73 115.71Z" fill="black"/>
<path d="M77.1854 176.565C73.4207 180.531 69.3968 183.256 64.5955 183.79C61.24 184.169 57.9664 183.825 54.8973 181.945C51.1326 179.634 49.0184 175.771 48.7729 170.477C48.5137 165.028 50.246 160.717 53.847 157.648C56.8069 155.13 60.1761 154.354 63.6134 153.854C67.4326 153.285 71.2246 152.63 74.9756 151.509C76.3669 151.095 76.9262 150.371 76.8853 148.474C76.7761 142.421 74.9756 139.507 70.2834 138.42C68.0601 137.92 65.7822 137.989 63.5452 138.42C60.2988 139.041 58.0209 141.352 57.1343 145.335C56.6569 147.491 55.8931 147.956 54.3244 147.387C53.4378 147.06 52.4967 146.887 51.5828 146.905C49.9459 146.922 50.0141 145.956 50.3688 144.404C52.3739 135.765 57.5708 132.368 64.0362 131.402C68.1828 130.781 72.3567 130.867 76.4079 132.644C80.609 134.506 82.9279 138.196 83.4189 143.697C83.9236 149.543 83.569 155.406 83.6508 161.269C83.719 166.373 83.4735 171.495 84.0736 176.565C84.1964 177.634 84.3464 178.72 84.6056 179.755C85.3695 182.893 85.3831 182.893 82.8597 182.893C78.6585 182.876 78.6585 182.876 77.1854 176.565ZM76.8443 160.976C76.8716 157.424 76.8716 157.441 74.2527 158.406C73.748 158.596 73.2433 158.786 72.725 158.907C68.7694 159.872 64.7864 160.683 60.8717 161.821C57.6117 162.769 55.8249 165.753 55.9203 169.46C56.0158 173.254 58.1164 176.203 61.3491 176.944C68.0601 178.513 77.1172 175.03 76.8443 160.976Z" fill="black"/>
<path d="M113.687 159.648C109.322 159.648 104.943 159.734 100.579 159.596C98.9418 159.545 98.7509 160.252 98.9691 162.062C99.9785 170.184 103.157 175.237 108.285 176.651C113.823 178.186 118.556 175.358 120.862 168.839C121.53 166.942 122.239 166.304 123.794 166.856C124.735 167.184 125.758 167.374 126.741 167.356C128.664 167.287 128.5 168.391 127.982 170.115C124.804 180.634 117.411 184.825 108.995 183.773C98.6827 182.48 92.4627 173.702 92.0399 160.579C91.8898 155.682 92.1081 150.871 93.363 146.198C96.091 136.075 103.157 130.505 112.35 131.178C120.125 131.747 126.44 138.886 128.173 149.06C128.65 151.854 128.759 154.699 128.882 157.544C128.95 159.165 128.514 159.717 127.191 159.7C122.689 159.596 118.188 159.648 113.687 159.648ZM110.359 152.733C113.66 152.733 116.974 152.75 120.275 152.733C120.957 152.733 121.803 153.026 121.639 151.423C121.298 148.043 120.616 144.852 118.72 142.3C115.337 137.765 111.123 136.972 106.689 138.851C102.161 140.766 100.033 145.353 99.2828 151.129C99.0919 152.647 99.7193 152.768 100.633 152.768C103.88 152.716 107.112 152.733 110.359 152.733Z" fill="black"/>
<path d="M198.201 158.251C198.092 162.252 197.779 167.167 195.978 171.702C192.718 179.91 185.23 184.859 177.605 183.876C169.434 182.824 163.624 176.961 161.618 167.477C160.036 159.941 160.05 152.371 162.3 145.042C164.892 136.541 170.103 132.023 177.114 131.281C190.086 129.884 198.311 140.197 198.201 158.251ZM167.525 157.372C167.484 159.803 167.62 162.217 168.029 164.614C169.189 171.46 173.24 176.392 178.178 176.944C183.416 177.513 188.135 174.168 189.895 168.081C191.954 160.941 192.091 153.613 189.717 146.525C186.512 136.937 176.404 135.023 170.948 142.835C168.043 146.991 167.538 152.095 167.525 157.372Z" fill="black"/>
<path d="M143.409 139.541C144.309 137.903 144.909 136.817 145.496 135.713C148.865 129.488 154.239 130.453 158.209 133.213C158.768 133.592 158.986 134.04 158.686 134.816C158.481 135.334 158.345 135.903 158.181 136.454C157.731 137.938 157.581 139.869 156.735 140.783C155.781 141.817 154.498 140.214 153.312 139.938C149.67 139.127 146.56 141.283 145.278 145.715C144.241 149.301 144.009 153.044 144.009 156.837C144.009 164.614 143.968 172.409 144.036 180.186C144.05 182.152 143.764 182.962 142.018 182.928C137.298 182.79 137.298 182.911 137.298 176.875C137.298 162.907 137.325 148.922 137.257 134.954C137.244 132.85 137.544 132.023 139.399 132.109C143.273 132.281 143.273 132.143 143.313 137.162C143.327 137.713 143.368 138.282 143.409 139.541Z" fill="black"/>
</svg>
